<svg width="30" height="30" viewBox="0 0 30 30" fill="none" xmlns="http://www.w3.org/2000/svg">
<path d="M14.1314 0.117188C13.6568 0.287109 13.4752 0.421875 12.3267 1.43555L11.2603 2.37891L9.36776 2.23242C7.23495 2.07422 6.99471 2.08594 6.35018 2.40234C5.88143 2.63086 5.40682 3.10547 5.20174 3.55078C5.11385 3.73828 4.80916 4.62891 4.52791 5.52539L4.01229 7.16016L2.57674 8.00977C0.959555 8.9707 0.72518 9.14648 0.438071 9.56836C0.0923675 10.0781 -0.0189607 10.5176 0.0103362 11.209L0.0396331 11.8066L0.695883 13.3945L1.35213 14.9883L0.690024 16.5879L0.0279143 18.1934V18.9023C0.0279143 19.5938 0.0337737 19.6113 0.244711 20.0449C0.572836 20.707 0.830649 20.918 2.66463 22.0195L4.2994 22.998L4.66854 24.5508C4.87948 25.4297 5.10799 26.2441 5.19588 26.4258C5.41268 26.8711 5.94002 27.3867 6.39705 27.5977C7.03573 27.8906 7.30526 27.9082 9.37362 27.7441C11.1549 27.6035 11.2135 27.6035 11.3306 27.7031C12.4205 28.6699 13.4342 29.5313 13.5982 29.6367C14.3775 30.1113 15.5435 30.1289 16.3404 29.666C16.5455 29.5488 17.4537 28.7813 18.6666 27.7031C18.7838 27.5977 18.8365 27.5977 20.6471 27.7441C22.7623 27.9141 22.9791 27.9023 23.6529 27.5684C24.1334 27.3281 24.5728 26.8887 24.8072 26.4082C24.8892 26.2441 25.1236 25.4063 25.3287 24.5508L25.7037 22.998L27.2506 22.0781C29.0728 20.9883 29.4244 20.7012 29.7467 20.0566C29.94 19.6641 29.9693 19.5586 29.9869 19.0664C30.0045 18.7617 29.981 18.3984 29.9459 18.2578C29.9107 18.1113 29.6002 17.3203 29.2603 16.4883L28.6392 14.9883L29.3014 13.3945L29.9635 11.8066L29.9869 11.209C30.0162 10.4824 29.8873 10.0254 29.5064 9.50391C29.1842 9.07031 28.9908 8.93555 27.2154 7.88086C26.4127 7.40625 25.7389 7.00781 25.7271 6.99609C25.7154 6.98438 25.5396 6.28711 25.3346 5.44336C25.1295 4.59375 24.8951 3.76172 24.8131 3.5918C24.6139 3.1582 24.0865 2.61328 23.6412 2.39648C23.0084 2.08594 22.7564 2.07422 20.6295 2.23242L18.7369 2.37891L17.6705 1.43555C16.5045 0.404297 16.3404 0.287109 15.8424 0.117188C15.3971 -0.0410156 14.5709 -0.0351562 14.1314 0.117188ZM15.8599 5.41406C17.3717 5.50195 19.1939 6.18164 20.6236 7.19531C21.3326 7.69922 22.2994 8.66602 22.8033 9.375C23.3248 10.1074 23.899 11.2383 24.1627 12.0645C24.4791 13.0371 24.608 13.8926 24.608 15C24.608 16.6055 24.2974 17.9238 23.5767 19.3359C23.0787 20.3086 22.5455 21.0469 21.7955 21.7969C19.9674 23.625 17.5767 24.6152 14.9986 24.6152C12.9654 24.6152 11.0494 24 9.37362 22.8047C8.66463 22.3008 7.69784 21.334 7.19393 20.625C6.3619 19.459 5.7408 17.9707 5.50643 16.5996C5.34823 15.6797 5.34823 14.3203 5.50643 13.4004C5.7408 12.0293 6.3619 10.541 7.19393 9.375C8.7994 7.11328 11.5592 5.57812 14.3248 5.39648C14.6822 5.37305 15.0514 5.36133 15.1451 5.37305C15.2447 5.37891 15.5611 5.40234 15.8599 5.41406Z"/>
<path d="M13.5991 7.1836C10.3882 7.72267 7.70459 10.4297 7.17725 13.6524C7.06592 14.3672 7.06592 15.6328 7.17725 16.3477C7.70459 19.5996 10.3999 22.2949 13.6519 22.8223C14.3667 22.9336 15.6323 22.9336 16.3472 22.8223C19.5991 22.2949 22.2944 19.5996 22.8218 16.3477C22.9331 15.6328 22.9331 14.3672 22.8218 13.6524C22.2944 10.4004 19.5991 7.70509 16.3472 7.17774C15.6616 7.06642 14.273 7.07228 13.5991 7.1836ZM19.8452 11.6602C19.9507 11.7188 20.0737 11.8535 20.1265 11.9473C20.2319 12.1524 20.2437 12.5508 20.1499 12.7324C20.0562 12.9141 14.7124 18.2695 14.519 18.375C14.314 18.4805 13.9272 18.4805 13.7222 18.375C13.5288 18.2695 9.94287 14.6719 9.84912 14.4902C9.75537 14.3086 9.76709 13.9102 9.87256 13.7051C10.0542 13.3594 10.6226 13.1836 10.9741 13.3652C11.0444 13.4004 11.7827 14.1035 12.6147 14.9297L14.1206 16.4356L16.5112 14.0566C17.8237 12.7442 18.9487 11.6426 19.0132 11.6074C19.2065 11.5078 19.6401 11.5313 19.8452 11.6602Z"/>
</svg>
