<svg width="40" height="40" viewBox="0 0 40 40" fill="none" xmlns="http://www.w3.org/2000/svg">
<path d="M18.5079 2.39062C15.1095 3 12.4454 5.4375 11.5157 8.75781C11.2423 9.75781 11.1642 11.6484 11.3595 12.7422C11.8673 15.5859 13.2892 18.4219 15.7267 21.4609C16.5235 22.4687 18.1095 24.1953 18.6954 24.7109C19.297 25.2344 19.5938 25.3906 20.0001 25.3906C20.4063 25.3906 20.7032 25.2344 21.3048 24.7109C21.8907 24.1953 23.4767 22.4687 24.2735 21.4609C27.2267 17.7734 28.7501 14.2656 28.7579 11.1484C28.7579 9.65625 28.5313 8.5625 27.9688 7.35937C26.4923 4.20312 23.3907 2.24219 19.9298 2.27344C19.4767 2.27344 18.836 2.32812 18.5079 2.39062ZM20.9767 9.04687C21.4063 9.25781 21.8985 9.8125 22.0704 10.2578C22.2657 10.7812 22.2032 11.6562 21.9298 12.1172C21.4845 12.8828 20.8673 13.2422 20.0001 13.2422C19.1329 13.2422 18.5157 12.8828 18.0704 12.1172C17.797 11.6562 17.7345 10.7812 17.9298 10.2578C18.1642 9.65625 18.7501 9.10156 19.3751 8.89844C19.7188 8.78125 20.6329 8.86719 20.9767 9.04687Z" fill="#28C79E"/>
<path d="M4.84408 20.6406C4.6097 20.7656 4.43783 20.9219 4.32064 21.1328C4.15658 21.4375 2.91439 25.6875 2.97689 25.7344C2.99251 25.7422 9.08626 26.8672 16.516 28.2266L30.0238 30.6953L33.3519 27.9531C35.18 26.4453 36.7191 25.1719 36.7738 25.125C36.8441 25.0625 36.7425 24.6172 36.3597 23.2422C36.0785 22.25 35.7738 21.3047 35.68 21.1328C35.5628 20.9219 35.391 20.7656 35.1566 20.6406C34.8128 20.4688 34.7972 20.4688 31.016 20.4688H27.2269L26.8363 21.0313C25.766 22.5703 23.5785 25.0703 22.4144 26.0938C22.0472 26.4219 21.555 26.7656 21.2581 26.9063C20.7894 27.125 20.6722 27.1484 20.0003 27.1484C19.3285 27.1484 19.2113 27.125 18.7425 26.9063C18.4456 26.7656 17.9535 26.4219 17.5863 26.0938C16.4222 25.0703 14.2347 22.5703 13.1644 21.0313L12.7738 20.4688H8.9847C5.20345 20.4688 5.18783 20.4688 4.84408 20.6406Z" fill="#28C79E"/>
<path d="M30.875 32.289L24.4453 37.6953L31.7188 37.7187C38.8359 37.7344 38.9922 37.7344 39.2891 37.5781C39.7188 37.3594 39.9453 37.0156 39.9844 36.5078C40.0156 36.1406 39.8516 35.5 38.7031 31.4844C37.9844 28.9453 37.3672 26.875 37.3438 26.8828C37.3203 26.8828 34.4141 29.3203 30.875 32.289Z" fill="#28C79E"/>
<path d="M2.39088 27.6328C2.36744 27.7109 1.82057 29.6328 1.17213 31.9141C0.140881 35.5078 -0.00755646 36.1094 0.015881 36.4922C0.0549435 37.0156 0.273694 37.3594 0.703381 37.5781C0.992444 37.7266 1.17213 37.7344 3.82838 37.7344H6.64088V32.9844V28.2344L4.59401 27.8672C3.46119 27.6641 2.51588 27.4922 2.48463 27.5C2.45338 27.5 2.41432 27.5625 2.39088 27.6328Z" fill="#28C79E"/>
<path d="M8.4375 33.1641V37.7344H15.0391H21.6328L24.8594 35.0312C26.6328 33.5391 28.0938 32.2969 28.1094 32.2578C28.125 32.2188 28.0547 32.1719 27.9531 32.1484C27.6875 32.0859 8.59375 28.5938 8.50781 28.5938C8.46875 28.5938 8.4375 30.4453 8.4375 33.1641Z" fill="#28C79E"/>
</svg>
