<svg width="108" height="40" viewBox="0 0 108 40" fill="none" xmlns="http://www.w3.org/2000/svg">
<path d="M43.3668 0.249393C37.4922 0.74818 29.4562 1.99515 24.6623 3.1867C14.2154 5.76377 7.39868 8.92276 3.26983 13.1347C0.942154 15.5455 0 17.513 0 20.0346C0 22.5563 0.942154 24.5791 3.29754 26.9068C9.50467 33.1971 21.8912 37.3537 41.0114 39.6259C45.1403 40.1247 62.6533 40.1247 66.7821 39.6259C82.8265 37.7139 94.1323 34.4718 101.143 29.7333C103.554 28.1261 106.076 25.4659 106.99 23.5816C108.126 21.3093 108.126 18.76 106.99 16.4877C106.076 14.5757 103.498 11.8878 101.115 10.2806C93.6612 5.26498 79.9169 1.55178 64.0665 0.249393C60.0208 -0.0831337 47.3294 -0.0831337 43.3668 0.249393ZM50.5438 11.7769C50.2113 12.3588 49.7679 13.0239 49.6017 13.2456C49.4077 13.4673 49.186 13.8552 49.0752 14.0769C48.992 14.2986 48.4655 15.1853 47.9667 16.0166C47.0246 17.5407 47.0246 17.5407 47.5234 18.372C47.8005 18.8154 48.8535 20.6997 49.8788 22.5286C50.904 24.3575 51.9293 26.0755 52.1787 26.3249C52.5667 26.796 52.2896 26.8237 46.886 26.8237C41.7319 26.8237 41.15 26.7683 41.15 26.3526C41.15 26.1032 40.7066 25.0779 40.1247 24.0804C38.2958 20.7828 38.3512 20.7828 38.4344 23.9972L38.5175 26.8237H33.8067H29.0959V18.9262V11.0287H33.7236H38.3512L38.4344 13.6612L38.5175 16.3214L39.4874 14.8805C40.0139 14.1046 40.7343 13.0239 41.0946 12.4974C41.4548 11.9709 41.6765 11.3613 41.5933 11.1396C41.4825 10.8071 42.2307 10.7516 46.3041 10.7516H51.1812L50.5438 11.7769ZM71.3543 13.1625V15.601H67.558C64.1496 15.601 63.734 15.6564 63.6508 16.072C63.5677 16.5154 63.8448 16.5708 66.6159 16.5708H69.6917V18.7045V20.8659H66.7267C63.8171 20.8659 63.734 20.8937 63.6508 21.5033L63.54 22.1683L67.4472 22.0575L71.3543 21.9744V24.3852V26.8237H63.0412H54.7558L54.6727 18.7877L54.5895 10.7516H62.9858H71.3543V13.1625ZM91.5275 10.9179C91.3613 11.0565 91.9155 12.636 93.4673 16.7094C93.7721 17.4576 94.7419 20.0623 95.6841 22.4454L97.3467 26.8237H92.442H87.5372L87.177 25.4382L86.8168 24.0526H84.6553H82.4939L82.0506 25.1888C81.8012 25.7984 81.6626 26.4357 81.7458 26.5743C81.8566 26.7129 80.2494 26.8237 77.7554 26.8237C73.8483 26.8237 73.5712 26.796 73.8483 26.3249C74.4302 25.2719 78.8639 11.4721 78.7253 11.1396C78.6145 10.8071 79.7229 10.7516 85.1264 10.7516C88.7288 10.7516 91.6107 10.8348 91.5275 10.9179ZM23.9695 18.9262V26.8237H19.2587H14.548V18.9262V11.0287H19.2587H23.9695V18.9262Z" fill="#8B8B8B"/>
<path d="M84.018 19.2035L83.5469 20.1733H84.5167C85.4312 20.1733 85.4589 20.1733 85.1541 19.342C84.7661 18.1505 84.5167 18.1228 84.018 19.2035Z" fill="#ECC115"/>
</svg>
