<svg width="40" height="40" viewBox="0 0 40 40" fill="none" xmlns="http://www.w3.org/2000/svg">
<path d="M8.68652 2.03125C8.31152 2.26562 8.12402 2.61719 8.12402 3.125C8.12402 3.90625 8.59277 4.375 9.37402 4.375C10.1553 4.375 10.624 3.90625 10.624 3.125C10.624 2.34375 10.1553 1.875 9.37402 1.875C9.08496 1.875 8.8584 1.92188 8.68652 2.03125Z" fill="#28C79E"/>
<path d="M16.8115 3.90625C16.4365 4.14062 16.249 4.49219 16.249 5C16.249 5.78125 16.7178 6.25 17.499 6.25C18.2803 6.25 18.749 5.78125 18.749 5C18.749 4.21875 18.2803 3.75 17.499 3.75C17.21 3.75 16.9834 3.79688 16.8115 3.90625Z" fill="#28C79E"/>
<path d="M25.5068 3.89844C24.1084 4.30469 22.9756 5.25 22.3584 6.52344C21.9834 7.28906 21.874 7.82812 21.874 8.97656V10H23.499C25.3271 10 25.7803 9.92188 26.624 9.5C27.6475 8.98438 28.4053 8.22656 28.8896 7.22656C29.2646 6.46094 29.374 5.92188 29.374 4.77344V3.75L27.6787 3.75781C26.3037 3.75781 25.8818 3.78906 25.5068 3.89844Z" fill="#28C79E"/>
<path d="M5.27246 8.01564C4.75684 8.10157 3.85059 8.38282 3.5459 8.56251C3.36621 8.66407 3.05371 8.9297 2.85059 9.15626L2.4834 9.57032L2.51465 10.1172C2.56152 10.7813 2.77246 11.2734 3.63184 12.6953C4.99121 14.9609 6.63965 17.3203 8.11621 19.1172L8.83496 20H9.41308C10.1084 20 10.085 20.0781 9.77246 18.8281C9.05371 16.0156 7.57715 13.4063 5.46777 11.25L4.68652 10.4453L5.0459 10.0234L5.41309 9.59376L6.07715 10.25C8.2959 12.4375 10.0771 15.4141 10.7959 18.1406C10.8896 18.5234 10.999 18.8281 11.0225 18.8281C11.1162 18.8281 11.5381 17.7109 11.6787 17.1094C12.2881 14.3594 11.6318 11.25 10.0771 9.58595C9.39746 8.85157 8.9834 8.59376 8.0459 8.27345C7.41309 8.06251 7.1709 8.02345 6.40527 8.00001C5.91309 7.9922 5.40527 8.00001 5.27246 8.01564Z" fill="#28C79E"/>
<path d="M13.1393 9.60938C12.5846 9.89063 12.069 10.4141 12.1549 10.6094C12.4049 11.1953 12.8268 12.5938 12.9284 13.2031C13.1706 14.625 13.0612 16.5391 12.6471 17.9219C12.5612 18.2109 12.5065 18.4688 12.5299 18.4922C12.6002 18.5703 13.3581 17.4453 13.7799 16.6328C14.319 15.6094 14.7252 14.4141 14.8971 13.3516C14.9674 12.9063 15.0377 12.5234 15.0456 12.5078C15.0612 12.4922 15.319 12.5078 15.6159 12.5391C16.2721 12.6016 16.2565 12.5547 16.0065 13.7734C15.5924 15.8516 14.5924 17.9219 13.2877 19.4375L12.8034 20H14.2721H15.7409V18.8125C15.7409 17.7031 15.7565 17.5781 15.9518 17.0938C16.5143 15.6797 17.6549 14.5391 18.9284 14.1016L19.3815 13.9531L19.3268 13.6328C19.0456 11.9063 17.4752 10.1953 15.6081 9.57813C15.1471 9.42188 14.8502 9.375 14.3112 9.375C13.694 9.375 13.5612 9.39844 13.1393 9.60938Z" fill="#28C79E"/>
<path d="M30.7646 10.4141C29.7881 10.7578 28.999 11.4297 28.6006 12.2656C28.3037 12.8984 28.3271 13.6797 28.7021 15.1484C29.0381 16.5 29.0615 17.0156 28.8037 17.5078C28.3975 18.2734 27.585 18.5156 26.3584 18.2422C26.0225 18.1641 25.7021 18.0859 25.6475 18.0703C25.5693 18.0391 25.5459 18.2031 25.5459 18.7578C25.5459 19.1641 25.5146 19.6094 25.4756 19.75L25.3975 20H27.4678C28.6006 20 29.5303 19.9844 29.5303 19.9609C29.5303 19.7734 30.0693 17.2891 30.3115 16.3516C30.6084 15.2422 31.2178 13.1562 31.2959 13.0312C31.3271 12.9922 31.71 13.0938 32.3115 13.3125C32.374 13.3359 32.2881 13.7188 32.0537 14.4688C31.5303 16.1406 30.6396 19.8828 30.7334 19.9766C30.7412 19.9922 32.1787 19.9922 33.9131 19.9844L37.0693 19.9609L36.7334 19.5938C36.0459 18.8516 35.4053 18.5625 34.1396 18.4375C33.2881 18.3438 32.9209 18.1953 32.6709 17.8125C32.3506 17.3359 32.4365 17.0938 33.374 15.7969C34.0381 14.8984 34.1709 12.6094 33.6396 11.4453C33.2881 10.6719 32.7646 10.3281 31.835 10.2656C31.3975 10.2344 31.1865 10.2656 30.7646 10.4141Z" fill="#28C79E"/>
<path d="M19.4285 15.1641C18.8582 15.3594 18.4207 15.625 17.9832 16.0469C17.5691 16.4453 17.1394 17.0938 17.2332 17.1797C17.2722 17.2188 17.4988 17.3047 17.7332 17.3828C17.9675 17.4609 18.1863 17.5312 18.2175 17.5547C18.2644 17.5781 18.1472 17.9766 17.9285 18.5703C17.905 18.6406 17.78 18.625 17.4519 18.5156C17.2097 18.4297 16.9753 18.3594 16.9363 18.3594C16.8425 18.3594 16.8582 19.3594 16.9597 19.7031L17.0378 20H20.6238H24.2097L24.2878 19.7031C24.3894 19.3516 24.3972 18.9844 24.3113 18.9844C24.2722 18.9844 24.0378 19.0547 23.7957 19.1406C23.4675 19.25 23.3425 19.2656 23.3191 19.1953C23.0457 18.4453 22.9832 18.1953 23.0691 18.1641C23.1238 18.1406 23.4128 18.0391 23.7097 17.9375C24.3269 17.7344 24.3269 17.7266 24.0144 17.0547C23.7644 16.5391 23.2019 15.9062 22.6863 15.5781C22.3582 15.3672 21.4675 15 21.2878 15C21.2644 15 21.2488 15.2812 21.2488 15.625V16.25H20.6238H19.9988V15.625C19.9988 15.2812 19.9753 15 19.9441 15C19.905 15.0078 19.6785 15.0781 19.4285 15.1641ZM21.2488 18.125V18.75H20.6238H19.9988V18.125V17.5H20.6238H21.2488V18.125Z" fill="#28C79E"/>
<path d="M4.68652 17.5313C3.40527 18.0625 2.76465 18.5234 2.56934 19.0391C2.53027 19.1406 2.49902 19.4063 2.49902 19.6172V20H4.9209H7.34277L6.77246 19.2734C6.45996 18.8828 5.99902 18.2813 5.74902 17.9453C5.50684 17.6172 5.26465 17.3438 5.20996 17.3438C5.15527 17.3516 4.9209 17.4297 4.68652 17.5313Z" fill="#28C79E"/>
<path d="M2.49902 21.625C2.49902 23.3437 3.24121 26.1328 4.21777 28.1093C6.78027 33.2734 11.6709 36.7265 17.4209 37.4218C18.4521 37.5468 21.7881 37.5234 22.8662 37.3828C29.2334 36.5468 34.6709 32.0468 36.6631 25.9609C37.1553 24.4453 37.499 22.6718 37.499 21.625V21.25H19.999H2.49902V21.625ZM7.06934 27.7109C8.45215 29.8125 10.4521 31.6562 12.5928 32.8125C12.9287 32.9922 13.2178 33.1718 13.2412 33.2109C13.2881 33.2734 12.9053 34.2187 12.835 34.2187C12.8193 34.2187 12.585 34.1093 12.3193 33.9765C10.5693 33.0859 8.62402 31.5078 7.21777 29.8203C6.6709 29.1718 5.88965 28.0781 5.84277 27.8984C5.81934 27.8281 6.58496 27.289 6.72559 27.2734C6.74902 27.2656 6.90527 27.4687 7.06934 27.7109ZM15.624 34.375V35H14.999H14.374V34.375V33.75H14.999H15.624V34.375Z" fill="#28C79E"/>
</svg>
