<svg width="40" height="40" viewBox="0 0 40 40" fill="none" xmlns="http://www.w3.org/2000/svg">
<path d="M18.7571 2.96877C16.3743 3.46877 14.3587 5.08595 13.6712 7.07033C13.2883 8.15627 13.1712 9.66408 13.3665 10.9766C13.4446 11.4688 13.4758 11.5625 13.5774 11.5235C13.6477 11.5 13.8508 11.4531 14.0383 11.4297C14.3508 11.3906 14.3743 11.3672 14.3743 11.1406C14.3743 10.7735 14.5852 10.0235 14.8196 9.53127C15.1712 8.8047 16.3352 7.81252 16.8352 7.81252C16.8977 7.81252 17.3508 7.9297 17.8352 8.07814C19.054 8.44533 19.8821 8.59377 20.7727 8.59377C21.6868 8.59377 22.2024 8.45314 22.6946 8.08595C22.8899 7.93752 23.1008 7.81252 23.1712 7.81252C23.4368 7.81252 24.2415 8.32814 24.6087 8.72658C25.179 9.35158 25.6243 10.4141 25.6243 11.1485C25.6243 11.3125 25.6634 11.4063 25.7337 11.4063C25.7884 11.4063 25.9446 11.4297 26.0696 11.4531C26.2962 11.5 26.304 11.4922 26.4837 10.8906C26.7259 10.0547 26.7884 8.75002 26.6087 7.95314C26.2415 6.31252 25.0618 4.93752 23.4993 4.32033C23.0774 4.15627 22.9055 4.04689 22.7962 3.85939C22.6243 3.56252 22.2024 3.25783 21.718 3.07814C21.3118 2.92189 19.3274 2.85158 18.7571 2.96877Z" fill="#28C79E"/>
<path d="M16.3514 8.78906C15.3123 9.49219 14.8592 10.8672 15.0701 12.6641C15.492 16.1328 16.8514 18.7812 18.6482 19.6328C19.1404 19.8672 19.242 19.8828 20.0076 19.8828C20.7967 19.8828 20.8514 19.875 21.4217 19.5859C22.7498 18.9375 23.8826 17.2031 24.4842 14.9219C25.1404 12.4453 25.1014 10.6172 24.3748 9.50781C24.1326 9.14844 23.4685 8.59375 23.281 8.59375C23.2264 8.59375 23.0154 8.69531 22.8201 8.82031C21.742 9.50781 20.1014 9.49219 17.7654 8.78125C17.2732 8.63281 16.8514 8.51562 16.8123 8.51562C16.781 8.51562 16.5701 8.64062 16.3514 8.78906Z" fill="#28C79E"/>
<path d="M13.7806 12.1953C13.39 12.3047 13.179 12.5937 13.14 13.0781C13.0618 14.0703 13.7337 15.0547 14.64 15.2656C14.8509 15.3203 14.8587 15.3125 14.8197 15.1016C14.5384 13.8281 14.4447 13.3047 14.4056 12.75C14.3431 12.0469 14.3353 12.0312 13.7806 12.1953Z" fill="#28C79E"/>
<path d="M25.6008 12.7422C25.5695 13.1015 25.4758 13.7344 25.3898 14.1406C25.1008 15.4609 25.1008 15.3281 25.3586 15.2656C26.2101 15.0703 26.8742 14.1719 26.8742 13.2109C26.8742 12.5937 26.5695 12.2344 25.9679 12.1406L25.6476 12.0937L25.6008 12.7422Z" fill="#28C79E"/>
<path d="M16.4844 20.0234V21.2109L18.2656 22.9922L20.0469 24.7734L21.7812 22.9766L23.5156 21.1875V20.0078C23.5156 19.3594 23.4922 18.8281 23.4609 18.8281C23.4375 18.8281 23.2266 19.0156 22.9922 19.25C22.4766 19.7812 22.0078 20.1094 21.3828 20.375C20.9531 20.5547 20.7969 20.5781 20 20.5781C19.2031 20.5781 19.0469 20.5547 18.6172 20.375C18 20.1172 17.5156 19.7734 16.9922 19.25C16.7656 19.0156 16.5547 18.8281 16.5312 18.8281C16.5078 18.8281 16.4844 19.3672 16.4844 20.0234Z" fill="#28C79E"/>
<path d="M15.6016 22.4844L15.0781 23.0078L16.1172 25.4844C16.6797 26.8516 17.1719 27.9688 17.2031 27.9688C17.2266 27.9688 17.7656 27.3594 18.3906 26.6172L19.5234 25.2734L17.8672 23.6094C16.9609 22.7031 16.1953 21.9531 16.1719 21.9531C16.1484 21.9531 15.8906 22.1875 15.6016 22.4844Z" fill="#28C79E"/>
<path d="M22.1328 23.6094L20.4766 25.2734L21.6094 26.6172C22.2344 27.3594 22.7734 27.9688 22.7969 27.9688C22.8281 27.9688 23.3203 26.8516 23.8906 25.4922L24.9219 23.0156L24.3984 22.4844C24.1094 22.1953 23.8516 21.9531 23.8281 21.9531C23.8047 21.9531 23.0391 22.7031 22.1328 23.6094Z" fill="#28C79E"/>
<path d="M10.781 24.5781C8.82786 25.2422 7.1638 25.8516 7.09349 25.9219C6.98411 26.0312 6.84349 26.9453 6.35911 30.8203C6.02318 33.5078 5.78099 35.7578 5.79661 35.9844C5.83568 36.4531 6.05443 36.8047 6.43724 36.9844C6.67161 37.0938 7.25755 37.1094 11.7497 37.1094H16.7888L16.8669 36.8125C16.906 36.6562 17.3826 34.8516 17.9216 32.8047C18.4607 30.7656 18.906 29.0391 18.906 28.9688C18.906 28.8359 18.3513 27.8125 18.2888 27.8125C18.2654 27.8203 18.031 28.0781 17.7732 28.3984C17.5154 28.7188 17.2576 29 17.2029 29.0234C16.8982 29.1406 16.8904 29.1172 15.1482 24.9453C14.7888 24.0781 14.4607 23.3672 14.4138 23.3672C14.3747 23.3672 12.7341 23.9141 10.781 24.5781Z" fill="#28C79E"/>
<path d="M24.375 26.0781C23.75 27.5703 23.1797 28.8516 23.1016 28.9297C22.9141 29.1172 22.7734 29.0312 22.2188 28.3672C21.9609 28.0703 21.7344 27.8203 21.7109 27.8203C21.6875 27.8125 21.5312 28.0703 21.3672 28.3828L21.0703 28.9531L22.0703 32.7344C22.6172 34.8203 23.1016 36.6562 23.1484 36.8125L23.2188 37.1094H28.3203H33.4141L33.6797 36.9297C34.0156 36.7031 34.2188 36.3047 34.2188 35.8516C34.2188 35.6562 33.9531 33.375 33.6328 30.7734C33.0859 26.4062 33.0312 26.0391 32.8672 25.8906C32.7578 25.7812 31.4531 25.3125 29.1406 24.5391C27.1875 23.8906 25.5703 23.3594 25.5469 23.3594C25.5234 23.3594 25 24.5859 24.375 26.0781ZM28.3438 27.6719C28.4062 27.7344 28.4375 28.0234 28.4375 28.4531V29.1406H29.4922C30.4531 29.1406 30.5469 29.1562 30.625 29.2891C30.6719 29.3906 30.7031 30.4141 30.7031 32.0859C30.7031 34.3516 30.6875 34.7578 30.5781 34.9062C30.4609 35.0781 30.4531 35.0781 28.0938 35.0781C26.3672 35.0781 25.7109 35.0547 25.6406 34.9844C25.5078 34.8516 25.5078 29.3672 25.6406 29.2344C25.7031 29.1719 26.0625 29.1406 26.7344 29.1406H27.7344V28.5078C27.7344 28.1641 27.7734 27.8125 27.8125 27.7266C27.9062 27.5625 28.2031 27.5312 28.3438 27.6719Z" fill="#28C79E"/>
<path d="M26.25 32.1094V34.375H28.125H30V32.1094V29.8438H28.125H26.25V32.1094Z" fill="#28C79E"/>
<path d="M19.4133 26.4531C19.1164 26.8203 18.8586 27.1484 18.843 27.1875C18.8274 27.2266 18.968 27.5469 19.1477 27.8906L19.4836 28.5156H19.9992H20.5227L20.8508 27.9141C21.0305 27.5781 21.1633 27.2656 21.1555 27.2109C21.132 27.1016 20.0617 25.7891 19.9992 25.7891C19.9758 25.7891 19.718 26.0859 19.4133 26.4531Z" fill="#28C79E"/>
<path d="M18.5618 33.0703C18.0072 35.1797 17.5384 36.9609 17.5228 37.0078C17.4915 37.0859 18.015 37.1094 19.9993 37.1094C21.9759 37.1094 22.5072 37.0859 22.4837 37.0078C22.4603 36.9609 21.9915 35.1797 21.4368 33.0703L20.429 29.2188H19.9993H19.5697L18.5618 33.0703Z" fill="#28C79E"/>
</svg>
