<svg width="77" height="51" viewBox="0 0 77 51" fill="none" xmlns="http://www.w3.org/2000/svg">
<path d="M46.7501 0.105579C46.3384 0.2085 43.9197 0.568733 41.3467 0.877502C33.6789 1.90674 27.9666 3.60497 20.4017 7.2073C17.9316 8.39091 16.9023 9.11138 16.9023 9.83184C16.9023 10.5523 17.0567 10.6552 17.5713 10.2435C18.3947 9.52308 27.2976 6.02368 29.7678 5.4576C38.156 3.39913 41.604 2.93597 48.7571 2.93597C57.2483 2.93597 61.1594 3.75936 66.0483 6.53829C72.5325 10.2435 74.7968 16.8306 71.7605 23.2634C70.6798 25.6821 66.9231 29.6961 65.791 29.6961C65.4822 29.6961 65.2764 30.6224 65.2764 31.7545C65.2764 34.0703 65.4822 34.1732 67.7465 32.9896C70.3711 31.7031 74.0763 27.6376 75.4143 24.6014C76.9582 21.1534 77.164 15.1324 75.826 11.9932C73.6646 6.84706 67.3863 2.67866 59.3583 1.13481C55.1899 0.362888 48.1396 -0.254654 46.7501 0.105579Z" fill="#8B8B8B"/>
<path d="M59.0996 22.1825C59.0996 31.9602 59.1511 32.2175 60.2318 32.9894C62.6505 34.6877 62.7019 34.5333 62.7019 23.0059V12.1989H60.9008H59.0996V22.1825Z" fill="#8B8B8B"/>
<path d="M10.7266 14.5148C10.7266 16.2645 10.778 16.3159 12.785 16.3159C14.792 16.3159 14.8435 16.2645 14.8435 14.5148C14.8435 12.7651 14.792 12.7136 12.785 12.7136C10.778 12.7136 10.7266 12.7651 10.7266 14.5148Z" fill="#8B8B8B"/>
<path d="M34.3984 22.697C34.3984 30.4163 34.5014 31.1882 35.4791 32.4747C36.354 33.5554 36.9715 33.8127 38.8241 33.8127C40.9855 33.8127 41.0885 33.7613 41.0885 32.2689C41.0885 30.9823 40.8826 30.725 39.8019 30.725C38.5154 30.725 38.5154 30.6736 38.5154 26.0935C38.5154 21.5134 38.5154 21.4619 39.8019 21.4619C40.8826 21.4619 41.0885 21.2046 41.0885 19.9181C41.0885 18.6315 40.8826 18.3742 39.8019 18.3742C38.6698 18.3742 38.5154 18.1684 38.5154 16.3158V14.2573H36.4569H34.3984V22.697Z" fill="#8B8B8B"/>
<path d="M5.01453 17.9626C1.61805 22.2854 0.228588 25.6819 0.0227415 30.4678C-0.286029 37.6725 2.54437 42.8701 8.8227 46.318C18.0858 51.4127 29.8191 52.3391 46.2354 49.1484C49.8377 48.4794 59.0493 45.4432 61.7253 44.1052C63.6294 43.0759 63.7324 42.973 63.7324 40.5029C63.7324 37.7754 63.2692 37.3637 61.4166 38.6502C58.6891 40.5029 49.6833 43.2818 40.4202 45.1344C35.6343 46.1122 21.4823 45.9063 17.1595 44.8256C10.1607 43.1274 5.52915 39.9368 3.72799 35.5625C1.87536 31.1368 3.31629 22.8 6.60984 18.6316C8.15369 16.7275 8.56539 15.2866 7.69054 15.2866C7.43323 15.2866 6.24961 16.5217 5.01453 17.9626Z" fill="#8B8B8B"/>
<path d="M10.8308 25.013C10.9852 32.0117 11.4484 33.3498 13.8671 33.9673C14.7934 34.2246 14.8449 33.8644 14.8449 26.2995V18.3744H12.7349H10.625L10.8308 25.013Z" fill="#8B8B8B"/>
<path d="M18.4453 26.0935V33.8127H20.5038H22.5623V27.6373V21.4619H24.5178C25.5985 21.4619 26.7307 21.7192 27.0909 22.0795C27.5026 22.4912 27.7084 24.6011 27.7084 28.2549V33.8127H29.5096H31.3107V27.4315V21.0502L29.7154 19.7122C28.2745 18.4771 27.7599 18.3742 23.2827 18.3742H18.4453V26.0935Z" fill="#8B8B8B"/>
<path d="M46.1341 19.1463C42.7377 20.9989 41.3997 27.4316 43.664 31.1368C45.4137 34.0187 49.5821 35.0994 53.1329 33.607C55.5002 32.6292 55.9119 31.8058 54.4709 30.7251C53.3388 29.9018 53.1329 29.8503 52.0522 30.5708C50.6113 31.5485 47.9353 31.1368 46.9575 29.7988C45.5166 27.8948 46.0312 27.6374 51.1259 27.6374H56.0148V25.2702C56.0148 22.5427 54.9341 20.4328 52.9271 19.1977C51.1774 18.1685 47.9868 18.1685 46.1341 19.1463ZM51.4862 22.3369C52.0008 22.8 52.4125 23.572 52.4125 24.138C52.4125 24.91 52.0008 25.0644 49.3248 25.0644C46.8031 25.0644 46.2371 24.91 46.2371 24.1895C46.2371 21.8223 49.6335 20.6386 51.4862 22.3369Z" fill="#8B8B8B"/>
</svg>
