<svg width="170" height="35" viewBox="0 0 170 35" fill="none" xmlns="http://www.w3.org/2000/svg">
<path d="M122.48 3.43287C120.762 3.63105 119.771 3.81602 118.846 4.10669C115.411 5.19007 112.742 7.43611 111.21 10.5277C110.047 12.8795 109.585 15.1387 109.704 18.0057C109.809 20.8595 110.51 23.1188 111.963 25.3516C113.932 28.3639 117.129 30.3722 120.96 30.9799C122.321 31.1913 125.149 31.1913 126.509 30.9799C132.402 30.0419 136.59 25.8933 137.621 19.9611C137.925 18.2567 137.819 15.0859 137.409 13.5533C136.207 8.95549 133.366 5.7714 129.165 4.29165C128.518 4.06705 127.513 3.7896 126.919 3.69711C125.783 3.48572 123.246 3.34039 122.48 3.43287ZM125.809 9.9596C127.844 10.5806 129.376 12.2717 130.024 14.6234C130.407 16.0107 130.433 18.4285 130.09 19.7365C129.191 23.0659 126.932 24.9156 123.735 24.9156C120.551 24.9288 118.212 22.9866 117.406 19.6969C117.116 18.5342 117.102 16.1296 117.393 14.9141C117.644 13.8175 118.252 12.5359 118.86 11.8225C120.524 9.89354 123.22 9.16688 125.809 9.9596Z" fill="#8B8B8B"/>
<path d="M40.4336 30.174H55.231V24.0965L51.3731 24.0701L47.502 24.0305L47.4624 14.2139L47.436 4.41063H40.4336V30.174Z" fill="#8B8B8B"/>
<path d="M58.3107 13.2891C58.3503 22.009 58.3503 22.2072 58.641 23.3038C59.6583 27.1353 61.9968 29.4474 65.8679 30.4515C66.9117 30.729 67.3477 30.7554 69.5673 30.7554C71.8398 30.7554 72.1965 30.7158 73.3591 30.3987C75.2881 29.8834 76.6225 29.1435 77.8909 27.862C79.1064 26.6332 79.7537 25.5367 80.2558 23.8059C80.7843 21.9694 80.8636 20.5161 80.8636 12.1925V4.41066H73.7423L73.663 21.3881L73.3591 22.128C72.6589 23.8587 71.6416 24.625 69.8976 24.7307C67.9158 24.8496 66.6078 24.1098 65.8547 22.4847L65.4716 21.6523L65.3923 4.41066H58.2578L58.3107 13.2891Z" fill="#8B8B8B"/>
<path d="M85.6172 30.1741H92.7517V24.6118C92.7517 21.5599 92.8045 19.0892 92.8574 19.1289C92.9102 19.1685 94.6278 21.6656 96.6624 24.6779L100.349 30.1609L104.748 30.1741C107.153 30.1741 109.135 30.1477 109.135 30.108C109.135 30.0816 106.902 27.0957 104.18 23.4888C101.458 19.8819 99.2256 16.896 99.2256 16.8432C99.2256 16.8035 101.406 14.0026 104.048 10.6335C106.704 7.25126 108.87 4.47674 108.87 4.45032C108.87 4.4239 107.007 4.41068 104.748 4.41068L100.613 4.4239L92.8177 15.3106L92.7781 9.85403L92.7517 4.41068H85.6172V30.1741Z" fill="#8B8B8B"/>
<path d="M142.164 30.1741H149.299V4.41068H142.164V30.1741Z" fill="#8B8B8B"/>
<path d="M154.586 30.1741H169.516V24.0966H161.72V4.41068H154.586V30.1741Z" fill="#8B8B8B"/>
<path d="M0.535156 34.666H34.49V0.711182H0.535156V34.666ZM7.53752 4.64836C7.78855 4.76727 8.13206 5.07114 8.2906 5.32217L8.59448 5.77138V15.4294C8.59448 24.7967 8.60769 25.1005 8.85872 25.5101C9.00405 25.7479 9.25508 25.9725 9.41362 26.0122C9.58538 26.0518 13.6547 26.065 18.4639 26.0518L27.2102 26.0122L24.8981 20.5688C22.8106 15.6407 22.586 15.0462 22.586 14.346C22.586 13.91 22.6785 13.3154 22.8238 12.9323C23.1013 12.2188 27.0649 5.61284 27.5405 5.08436C27.8708 4.71442 28.5314 4.41054 28.9938 4.41054C29.1788 4.41054 29.5751 4.50303 29.8658 4.62193C30.5528 4.89939 30.9228 5.49393 30.9228 6.35271C30.9228 6.93404 30.8171 7.18506 30.0376 8.45342C26.9724 13.4872 26.6949 13.976 26.6949 14.3195C26.6949 14.5177 28.0293 18.1114 29.6676 22.2996C31.3059 26.4878 32.6403 29.9361 32.6403 29.9758C32.6403 30.0154 27.1573 30.0418 20.4457 30.0418C10.6556 30.0418 8.11885 30.0022 7.56394 29.8701C6.32202 29.5398 5.3179 28.6017 4.88191 27.3334C4.72336 26.8974 4.69694 24.942 4.69694 16.3013C4.69694 6.03562 4.69694 5.78459 4.96118 5.3486C5.25184 4.85975 6.05778 4.42376 6.67874 4.41054C6.90334 4.41054 7.28649 4.51624 7.53752 4.64836ZM14.0114 4.66157C14.2624 4.79369 14.5927 5.11078 14.7381 5.3486C14.9891 5.78459 15.0023 6.07526 15.0419 13.0248L15.0816 20.2517L15.4779 20.582C16.0196 21.0445 16.5745 21.0312 17.0634 20.5424L17.4465 20.1593V13.038C17.4465 6.53768 17.4729 5.89029 17.6843 5.48072C18.0411 4.75406 18.5299 4.4766 19.4283 4.4766C20.3267 4.4766 20.8156 4.75406 21.1723 5.48072C21.3837 5.89029 21.4101 6.53768 21.4101 13.0908C21.4101 17.8868 21.3573 20.4763 21.2648 20.952C20.7759 23.2509 19.032 24.7306 16.667 24.8627C15.2401 24.942 14.3549 24.7306 13.364 24.0964C12.3863 23.4623 11.7257 22.5771 11.369 21.4672C11.118 20.6745 11.1048 20.2782 11.1048 13.1965V5.77138L11.4086 5.32217C11.9768 4.46339 13.113 4.17273 14.0114 4.66157Z" fill="#8B8B8B"/>
</svg>
