<svg xmlns="http://www.w3.org/2000/svg" height="800" width="1200" viewBox="-3.2390295 -0.9548825 28.071589 5.729295"><path d="M7.15434 1.10031h-1.1102v-.9278H5.5231v2.37736h.52105v-.9846h1.1102v.9846h.52104V.17251h-.52105m11.85474.46496h.97296v.69039h-1.1056V.77258c.00176-.02716-.00318-.0762.01975-.10583.02505-.03069.0642-.02787.1129-.02928m-.53658-.3295c-.10972.11219-.1136.27588-.11677.37042v1.87149h.5207v-.75812h1.1056v.75812h.52282V.1725h-1.6249c-.1538.00176-.29915.02399-.40745.13547M14.78633.17251h-1.62772v2.37702h.52141V.63747h.9772c.04868.00106.08854-.0014.11182.02928.024.02928.0194.07867.02047.10548v1.7773h.52105V.67804c-.00247-.0949-.00706-.25788-.11607-.37006-.10936-.11183-.25294-.1337-.40816-.13547m-2.6095 1.77659c-.00247.02787.00247.0762-.02046.10548-.0247.03175-.0642.02858-.11289.03034h-.97684V.17252h-.5214v2.37736h1.62736c.15522-.00141.29986-.02434.40816-.13582.10972-.11183.1143-.27481.11677-.37041V.1725h-.5207M17.405 1.94945c-.00247.02752.00247.07585-.02046.10548-.02399.0314-.0642.02822-.11289.02999h-.9779V.63712h.9779c.04868.00176.0889-.00106.11289.02998.02293.02893.018.07832.02046.10513zM17.92394.6784c-.00247-.0949-.00706-.25823-.11607-.37041-.109-.11183-.2533-.13406-.4078-.13512h-1.62702v2.37631h1.62701c.15452-.00035.2988-.02328.40781-.13546.10901-.11219.1136-.27446.11607-.37007m-8.8131-.83115L8.47902.17251h-.61948l.97225 1.49895v.87842h.5574v-.87842l.97225-1.49895H9.7423m11.28432 2.37701h.55562v-2.377h-.55562zM8.46914 3.73027h.19863V2.8374h-.19863zm4.28731 0h.19861V2.8374h-.1986zm6.45266-.89394h-.19473v.89465h.65546V3.5514h-.46073M7.0605 3.46287l-.40428-.62406h-.20144v.89182h.18733v-.60995l.40534.60995h.19967V2.8388H7.0605m2.42146.62371l-.40464-.62512h-.20178v.89323h.18767v-.61066l.4064.61066h.20003V2.8374h-.18768m4.28802.62511l-.40464-.62512h-.20178v.89323h.18767v-.61066l.4057.61066h.20038V2.8374h-.18733m2.10996.1986v.49706c0 .1316.06632.19756.1979.19756h.53059v-.17427h-.47837c-.03422 0-.05186-.01729-.05186-.05186v-.44133c0-.03316.01729-.04938.05045-.04938h.47978v-.17533h-.53058c-.13159 0-.1979.06596-.1979.19755m5.51885.46955c0 .03351-.01693.05045-.05186.05045h-.35383v-.544h.35524c.03387 0 .05045.01659.05045.05045zm-.00353-.66957h-.5962v.89464h.5962c.1323 0 .19826-.06385.19826-.1912v-.51259c0-.127-.06597-.19085-.19826-.19085M5.5118 2.8388v.89182h.7359v-.17074h-.54081v-.18909h.47025v-.16757h-.47025v-.19226h.5408V2.8388h-.5408m4.17019-.00176v.89359h.73625v-.17075h-.54116v-.19014h.4706v-.16722h-.4706V3.0092h.54116v-.17216h-.54116m.74859 0v.89359h.7359v-.17075h-.54081v-.19014h.47096v-.16722h-.47096V3.0092h.5408v-.17216h-.5408m-3.17183.53022h.23142v.13794c0 .03422-.01728.05115-.0515.05115h-.31927c-.03422 0-.05115-.01693-.05115-.05115v-.44133c0-.03316.01658-.04939.0501-.04939h.52563v-.17497h-.57714c-.13159 0-.19685.06561-.19685.19755v.496c0 .13195.06526.19756.19685.19756h.41487c.12982-.0007.19473-.06667.19473-.19755V3.2004h-.41769m6.71054.16651h.23142v.13758c0 .03458-.01728.05151-.0515.05151h-.31927c-.03457 0-.0515-.01693-.0515-.0515v-.44133c0-.03316.01658-.04939.0508-.04939h.52564v-.17533h-.5775c-.13194 0-.1979.06562-.1979.19756v.4967c0 .13195.06596.19756.1979.19756h.41487c.13052-.00035.19508-.06667.19508-.19755v-.33338h-.41804m2.8829.30516c0 .03456-.01764.05185-.05221.05185h-.32032c-.03457 0-.05186-.01729-.05186-.05186v-.44274c0-.0328.01658-.04868.05045-.04868h.32314c.03387 0 .0508.01588.0508.04868zm-.00106-.66746h-.42192c-.1323 0-.19826.06561-.19826.19826v.49741c0 .13194.06597.19826.19826.19826h.42192c.13159 0 .19791-.06632.19791-.19826V3.0353c0-.13265-.06632-.19826-.1979-.19826m-5.47511.17568h.34007c.03387 0 .05045.01658.05045.04974v.16687c0 .03422-.01658.0515-.05116.0515h-.33937zm.58525.2406V3.0353c0-.1323-.06632-.1979-.1979-.1979h-.5842v.89358h.19684v-.2801h.26917l.1785.2801h.2032l-.18485-.29105c.07938-.02293.11924-.08466.11924-.18661m7.23265-.41699v.17992h.30797v.71473h.19685v-.71473h.30727v-.17992h-.40676m-2.44651.89394h.14392v-.115h-.14392zm.22719-.11465v.11465h.06068l-.05786.08926h.06068l.08114-.09772v-.10619" fill="#004181"/><path d="M0 3.72992L2.15336 0 4.3067 3.72992" fill="#fdb813"/><path d="M.46073 3.72992L2.6141 0l2.15335 3.72992" fill="#00a650"/></svg>