<svg width="44" height="38" viewBox="0 0 44 38" fill="none" xmlns="http://www.w3.org/2000/svg">
<path fill-rule="evenodd" clip-rule="evenodd" d="M22.5209 37.989C32.7351 37.989 41.0154 30.4615 41.0154 21.1758C41.0154 11.8901 32.7351 4.36261 22.5209 4.36261C12.3066 4.36261 4.02637 11.8901 4.02637 21.1758C4.02637 30.4615 12.3066 37.989 22.5209 37.989ZM15.1558 26.556L21.3752 14.1143L22.6845 13.2736L30.3769 26.556H15.1558Z" fill="#2B30FF"/>
<path fill-rule="evenodd" clip-rule="evenodd" d="M38.6252 29.4519L39.9339 26.7741H37.0855L22.2664 1L7.74367 26.7741H4.92611L6.23481 29.4519L1 37.6527H8.68862L11.4696 32.6318H33.2268L35.8442 37.6527H43.3692L38.6252 29.4519ZM22.2664 15.728L28.6463 26.7741H16.0501L22.2664 15.728Z" fill="white"/>
<path d="M38.6252 29.4519L39.9339 26.7741H37.0855M38.6252 29.4519H6.23481M38.6252 29.4519L43.3692 37.6527H35.8442L33.2268 32.6318H11.4696L8.68862 37.6527H1L6.23481 29.4519M38.6252 29.4519L37.0855 26.7741M6.23481 29.4519L4.92611 26.7741H7.74367M6.23481 29.4519L7.74367 26.7741M28.6463 26.7741L22.2664 15.728L16.0501 26.7741M28.6463 26.7741H16.0501M28.6463 26.7741H37.0855M16.0501 26.7741H7.74367M7.74367 26.7741L22.2664 1L37.0855 26.7741" stroke="white" stroke-width="0.336264"/>
</svg>
