<svg width="166" height="273" viewBox="0 0 166 273" fill="none" xmlns="http://www.w3.org/2000/svg">
<g opacity="0.5">
<path d="M197.838 197.459C197.87 215.069 179.196 226.083 164.282 217.249L66.3521 159.245C59.4712 155.17 55.2296 147.665 55.2148 139.54L55.0044 23.9041C54.9723 6.29398 73.6465 -4.7195 88.5602 4.1139L186.49 62.118C193.371 66.1936 197.613 73.6982 197.627 81.8232L197.838 197.459Z" stroke="#8D9197" stroke-width="1.15447"/>
<path d="M1.00004 75.2653C0.967992 57.6552 19.6422 46.6417 34.5559 55.4751L132.486 113.479C139.367 117.555 143.608 125.059 143.623 133.184L143.834 248.82C143.866 266.43 125.191 277.444 110.278 268.61L12.3478 210.606C5.46686 206.531 1.22528 199.026 1.21049 190.901L1.00004 75.2653Z" stroke="#8D9197" stroke-width="1.15447"/>
</g>
</svg>
